<svg fill="none" xmlns="http://www.w3.org/2000/svg" viewBox="0 0 46 60"><path d="M39.798 23.066a3.769 3.769 0 11-7.537 0 3.769 3.769 0 017.537 0zm-13.266 0a3.769 3.769 0 11-7.537 0 3.769 3.769 0 017.537 0zm-13.265 0a3.769 3.769 0 11-7.538 0 3.769 3.769 0 017.538 0zm0 13.567a3.769 3.769 0 11-7.538 0 3.769 3.769 0 017.538 0zm0 13.568a3.769 3.769 0 11-7.538 0 3.769 3.769 0 017.538 0zM5.427 9.799a3.769 3.769 0 117.538 0 3.769 3.769 0 01-7.538 0zm19.87 4.07a6 6 0 01-6-6V6a6 6 0 00-6-6H6a6 6 0 00-6 6v48a6 6 0 006 6h7.297a6 6 0 006-6V39.166a6 6 0 016-6h14.532a6 6 0 006-6v-7.297a6 6 0 00-6-6H25.297z" fill="url(#paint0_linear)"/><path d="M45.528 60H26.155v-5.804h19.373V60z" fill="#E9BCB7"/><defs><linearGradient id="paint0_linear" x1="0" y1="26.455" x2="46.141" y2="26.384" gradientUnits="userSpaceOnUse"><stop stop-color="#29524A"/><stop offset=".552" stop-color="#68756E"/><stop offset="1" stop-color="#E9BCB7"/></linearGradient></defs></svg>