<svg width="315" height="412" viewBox="0 0 315 412" fill="none" xmlns="http://www.w3.org/2000/svg">
<path d="M272.818 170.95C272.818 178.13 266.998 183.95 259.818 183.95H234.149C226.97 183.95 221.149 178.13 221.149 170.95V145.281C221.149 138.101 226.97 132.281 234.149 132.281H259.818C266.998 132.281 272.818 138.101 272.818 145.281V170.95ZM181.88 170.95C181.88 178.13 176.06 183.95 168.88 183.95H143.212C136.032 183.95 130.212 178.13 130.212 170.95V145.281C130.212 138.101 136.032 132.281 143.212 132.281H168.88C176.06 132.281 181.88 138.101 181.88 145.281V170.95ZM90.9427 170.95C90.9427 178.13 85.1224 183.95 77.9427 183.95H52.2739C45.0942 183.95 39.2739 178.13 39.2739 170.95V145.281C39.2739 138.101 45.0942 132.281 52.2739 132.281H77.9427C85.1224 132.281 90.9427 138.101 90.9427 145.281V170.95ZM90.9427 263.957C90.9427 271.136 85.1224 276.957 77.9427 276.957H52.2739C45.0942 276.957 39.2739 271.136 39.2739 263.957V238.288C39.2739 231.108 45.0942 225.288 52.2739 225.288H77.9427C85.1224 225.288 90.9427 231.108 90.9427 238.288V263.957ZM90.9427 356.964C90.9427 364.143 85.1224 369.964 77.9427 369.964H52.2739C45.0942 369.964 39.2739 364.143 39.2739 356.964V331.295C39.2739 324.115 45.0942 318.295 52.2739 318.295H77.9427C85.1224 318.295 90.9427 324.115 90.9427 331.295V356.964ZM37.2049 54.3382C37.2049 47.1585 43.0252 41.3382 50.2049 41.3382H75.8737C83.0534 41.3382 88.8737 47.1585 88.8737 54.3382V80.007C88.8737 87.1867 83.0534 93.007 75.8737 93.007H50.2049C43.0252 93.007 37.2049 87.1867 37.2049 80.007V54.3382ZM145.281 95.0761C138.101 95.0761 132.281 89.2558 132.281 82.0761V13.0001C132.281 5.82042 126.461 0.000106744 119.281 0.000106744H13C5.82031 0.000106744 0 5.82041 0 13.0001V398.302C0 405.481 5.8203 411.302 13 411.302H119.281C126.461 411.302 132.281 405.481 132.281 398.302V240.352C132.281 233.172 138.101 227.352 145.281 227.352H301.156C308.336 227.352 314.156 221.532 314.156 214.352V108.076C314.156 100.896 308.336 95.0761 301.156 95.0761H145.281Z" fill="url(#paint0_linear)"/>
<path d="M312.093 411.302H179.296V371.517H312.093V411.302Z" fill="#E9BCB7"/>
<defs>
<linearGradient id="paint0_linear" x1="157.079" y1="-14.807" x2="157.079" y2="418.499" gradientUnits="userSpaceOnUse">
<stop stop-color="#29524A"/>
<stop offset="0.552083" stop-color="#68756E"/>
<stop offset="1" stop-color="#E9BCB7"/>
</linearGradient>
</defs>
</svg>
