<svg width="593" height="112" viewBox="0 0 593 112" fill="none" xmlns="http://www.w3.org/2000/svg">
<path d="M581.449 48.9547H567.698V35.204H581.449V48.9547ZM557.247 48.9547H543.497V35.204H557.247V48.9547ZM533.046 48.9547H519.295V35.204H533.046V48.9547ZM533.046 73.7066H519.295V59.9559H533.046V73.7066ZM533.046 98.4586H519.295V84.708H533.046V98.4586ZM518.745 11.0013H532.496V24.752H518.745V11.0013ZM544.048 25.3026V-7.62939e-06H508.844V109.46H544.048V60.5053H592.45V25.3026H544.048Z" fill="url(#paint0_linear)"/>
<path d="M591.901 109.46H556.56V98.872H591.901V109.46Z" fill="#4A1A61"/>
<path d="M49.732 23.4354V42.5888C47.9613 42.2661 46.5133 42.1048 45.0653 42.1048C29.7747 42.1048 20.1173 51.1181 20.1173 68.6608V110.347H0V24.4021H19.1507V36.9554C24.9453 27.9421 35.4067 23.4354 49.732 23.4354Z" fill="#4A1A61"/>
<path d="M127.226 67.3735C127.226 50.9575 116.282 40.4949 101.637 40.4949C87.15 40.4949 76.206 50.9575 76.206 67.3735C76.206 83.7909 87.15 94.2522 101.637 94.2522C116.282 94.2522 127.226 83.7909 127.226 67.3735ZM147.023 24.4015V110.347H127.87V99.2415C121.111 107.451 111.131 111.474 99.382 111.474C74.274 111.474 55.926 94.0922 55.926 67.3735C55.926 40.6562 74.274 23.4349 99.382 23.4349C110.327 23.4349 119.983 27.1375 126.905 34.8629V24.4015H147.023Z" fill="#4A1A61"/>
<path d="M296.639 61.0963V110.347H276.52V63.6723C276.52 48.3829 269.439 40.979 257.205 40.979C244.008 40.979 234.835 49.671 234.835 66.7309V110.347H214.716V63.6723C214.716 48.3829 207.635 40.979 195.401 40.979C182.044 40.979 173.031 49.671 173.031 66.7309V110.347H152.912V24.4016H172.064V35.3456C178.501 27.6203 188.481 23.435 200.231 23.435C212.785 23.435 223.247 28.103 229.201 37.7603C236.123 28.907 247.711 23.435 261.391 23.435C282.153 23.435 296.639 35.1843 296.639 61.0963Z" fill="#4A1A61"/>
<path d="M373.712 67.3735C373.712 50.9575 362.767 40.4949 348.123 40.4949C333.636 40.4949 322.691 50.9575 322.691 67.3735C322.691 83.7909 333.636 94.2522 348.123 94.2522C362.767 94.2522 373.712 83.7909 373.712 67.3735ZM302.411 67.3735C302.411 41.6229 321.726 23.4349 348.123 23.4349C374.839 23.4349 393.992 41.6229 393.992 67.3735C393.992 93.1255 374.839 111.474 348.123 111.474C321.726 111.474 302.411 93.1255 302.411 67.3735Z" fill="#4A1A61"/>
<path d="M484.788 61.0963V110.347H464.669V63.6723C464.669 48.3829 457.104 40.979 444.228 40.979C429.904 40.979 420.248 49.6709 420.248 66.8923V110.347H400.128V24.4016H419.281V35.507C425.88 27.6203 436.342 23.435 448.896 23.435C469.497 23.435 484.788 35.1843 484.788 61.0963Z" fill="#4A1A61"/>
<defs>
<linearGradient id="paint0_linear" x1="550.647" y1="-3.94062" x2="550.647" y2="111.375" gradientUnits="userSpaceOnUse">
<stop stop-color="#009F5B"/>
<stop offset="1" stop-color="#4B1A62"/>
</linearGradient>
</defs>
</svg>
